# xmcd
#
# Track frame offsets:
#	150
#	20932
#	39882
#	60361
#	80617
#	101204
#	119181
#	137130
#	152208
#	172293
#	194716
#	216306
#	241302
#	261677
#	285205
#	304471
#
# Disc length: 4300 seconds
#
# Revision: 0
# Processed by: cddbd v1.4PL0 Copyright (c) Steve Scherf et al.
# Submitted via: EasyCDDAExtractor 5.0.5.1
#
DISCID=0210ca10
DTITLE=Various Artist - Quiet Storm
DYEAR=2002
DGENRE=R&B
TTITLE0=Spend My Life WIth You
TTITLE1=In A Rush
TTITLE2=Freak Me
TTITLE3=Differences
TTITLE4=Have You Ever
TTITLE5=So Into You
TTITLE6=Most Beautiful Girl
TTITLE7=Once in a Lifetime
TTITLE8=Nobody
TTITLE9=Everytime I Close My Eyes
TTITLE10=I'm Ready
TTITLE11=Time After Time
TTITLE12=A Promise I Make
TTITLE13=My Love Is The Shhh
TTITLE14=Silly Love Song
TTITLE15=Tic Toc
EXTD=
EXTT0=
EXTT1=
EXTT2=
EXTT3=
EXTT4=
EXTT5=
EXTT6=
EXTT7=
EXTT8=
EXTT9=
EXTT10=
EXTT11=
EXTT12=
EXTT13=
EXTT14=
EXTT15=
PLAYORDER=
